# Blender v2.80 (sub 75) OBJ File: ''
# www.blender.org
mtllib Rock1.mtl
o Rock1_Cylinder
v 4.959528 -0.591558 0.303439
v 4.986308 -0.187789 0.307991
v 5.140830 0.136536 -0.671025
v 6.315850 -0.591558 -0.262342
v 6.094398 0.166286 -0.629919
v 5.849625 -0.591558 0.745515
v 5.674011 -0.088455 0.791548
v 6.326714 -0.056694 0.279983
v 5.223914 -0.591558 -0.734393
vt 0.380782 1.000000
vt 0.199021 1.000000
vt 0.307268 0.500000
vt 0.785553 1.000000
vt 0.580624 0.500000
vt 0.818606 0.500000
vt 0.946071 1.000000
vt 0.973340 0.500000
vt 0.602292 1.000000
vt 0.026220 1.000000
vt 0.077375 0.500000
vt 0.472327 0.300298
vt 0.260536 0.467805
vt 0.027378 0.323905
vt 0.100755 0.089525
vt 0.384891 0.069423
vt 0.962204 0.347508
vt 0.846311 0.076975
vt 0.539843 0.171000
vt 0.690429 0.448645
vn 0.9623 0.1839 -0.2006
vn -0.9669 0.0669 -0.2463
vn -0.4328 -0.2308 0.8714
vn -0.5778 0.0291 0.8157
vn 0.0400 0.0912 -0.9950
vn 0.6066 0.1401 0.7826
vn -0.0764 0.9761 0.2036
vn 0.0000 -1.0000 0.0000
vn 0.8295 -0.4059 0.3837
vn 0.3769 -0.3127 -0.8719
vn -0.9779 -0.0954 -0.1860
usemtl Material.001
s off
f 5/1/1 8/2/1 4/3/1
f 2/4/2 9/5/2 1/6/2
f 7/7/3 1/6/3 6/8/3
f 7/7/4 2/4/4 1/6/4
f 3/9/5 5/1/5 9/5/5
f 8/2/6 7/10/6 6/11/6
f 2/12/7 7/13/7 8/14/7 5/15/7 3/16/7
f 1/17/8 9/18/8 4/19/8 6/20/8
f 4/3/9 8/2/9 6/11/9
f 9/5/10 5/1/10 4/3/10
f 2/4/11 3/9/11 9/5/11
