# Blender v2.80 (sub 75) OBJ File: ''
# www.blender.org
mtllib Rock4.mtl
o Rock4_Icosphere.002
v 0.056825 -0.651936 0.386417
v -0.157236 0.132123 -0.476008
v 0.037918 0.034180 0.333130
v -0.529163 -0.003766 0.270379
v -0.873983 -0.046526 -0.104499
v -0.089877 0.527477 -0.005468
v -0.301328 -0.619816 -0.047769
v -0.146392 -0.582052 -0.617190
v -0.911584 -0.582050 -0.244818
v 0.546890 -0.599385 -0.069194
v -0.623806 -0.582051 0.361874
v -0.439658 -0.169463 -0.678233
v 0.378175 -0.013762 -0.438520
v 0.418365 -0.178761 0.006039
v -0.455001 0.295932 -0.249655
vt 0.272727 0.000000
vt 0.194689 0.137153
vt 0.340601 0.117562
vt 0.318592 0.288606
vt 0.681202 0.157461
vt 0.658666 0.274305
vt 0.818181 0.236191
vt 0.863020 0.157461
vt 0.985060 0.289045
vt 0.476848 0.274305
vt 0.499383 0.157461
vt 0.864252 0.314921
vt 0.727272 0.393651
vt 0.932540 0.431766
vt 0.106898 0.289045
vt 0.181818 0.393651
vt 0.351338 0.412450
vt 0.590909 0.393651
vt 0.522419 0.432483
vt 0.863635 0.393651
vt 0.181818 0.236191
vt 0.136065 0.116845
vt 0.000000 0.157461
vt 0.477994 0.040616
vt 0.386671 0.117562
vt 0.067874 0.039899
vt 0.636363 0.078731
vt 0.805883 0.059932
vn 0.0217 -0.9956 -0.0915
vn 0.6746 0.0756 0.7343
vn -0.7559 0.2151 -0.6183
vn 0.2719 0.0511 -0.9610
vn -0.1146 0.0738 0.9907
vn -0.7301 0.2218 0.6463
vn -0.4941 0.2518 -0.8322
vn 0.2427 0.7253 -0.6442
vn 0.8287 0.4464 0.3377
vn -0.1282 0.5385 0.8328
vn -0.5049 0.7771 0.3758
vn -0.6480 0.6962 0.3088
vn -0.0614 0.7685 -0.6369
vn 0.6158 0.7552 0.2246
vn 0.1785 0.4272 -0.8864
vn -0.4430 0.7471 -0.4955
vn -0.0192 0.1593 0.9870
vn 0.6737 0.0744 0.7352
vn 0.9572 0.2888 0.0206
vn 0.5859 -0.3048 -0.7509
vn -0.3999 -0.4058 -0.8218
vn -0.9024 -0.0488 0.4281
vn -0.1025 -0.9947 0.0110
vn 0.0225 -0.9979 -0.0601
vn -0.0728 -0.9967 0.0345
vn -0.0371 -0.9964 -0.0762
usemtl Material.001
s off
f 7/1/1 10/2/1 1/3/1
f 1/3/2 10/2/2 3/4/2
f 9/5/3 5/6/3 12/7/3
f 8/8/4 12/7/4 13/9/4
f 1/3/5 3/4/5 4/10/5
f 11/11/6 4/10/6 5/6/6
f 2/12/7 5/6/7 15/13/7
f 13/9/8 2/12/8 6/14/8
f 3/4/9 13/15/9 6/16/9
f 4/10/10 3/4/10 6/17/10
f 5/6/11 4/10/11 15/18/11
f 15/18/12 4/10/12 6/19/12
f 6/14/13 2/12/13 15/20/13
f 14/21/14 13/15/14 3/4/14
f 13/9/15 12/7/15 2/12/15
f 12/7/16 5/6/16 2/12/16
f 11/11/17 1/3/17 4/10/17
f 3/4/18 10/2/18 14/21/18
f 14/21/19 10/22/19 13/15/19
f 10/22/20 8/23/20 13/15/20
f 8/8/21 9/5/21 12/7/21
f 9/5/22 11/11/22 5/6/22
f 7/24/23 1/25/23 11/11/23
f 7/26/24 8/23/24 10/22/24
f 9/5/25 7/27/25 11/11/25
f 7/28/26 9/5/26 8/8/26
