# Blender v2.80 (sub 75) OBJ File: ''
# www.blender.org
mtllib Rock6.mtl
o Rock6_Icosphere.005
v -4.165583 -0.605125 0.460767
v -2.661254 1.217256 0.124774
v -4.203258 0.813159 0.741286
v -4.093527 0.810181 0.158673
v -3.045732 0.728147 -0.365366
v -3.601594 1.532148 0.439071
v -3.345649 -0.605125 0.024964
v -2.555717 -0.605125 0.063162
v -3.263553 -0.605125 -0.514536
v -3.370083 -0.605125 0.840329
v -4.240192 -0.605125 -0.131519
v -3.225572 1.332324 0.649292
v -3.350047 0.241369 0.990564
v -3.318155 1.281894 -0.118577
vt 0.272727 0.000000
vt 0.194689 0.137153
vt 0.340601 0.117562
vt 0.318592 0.288606
vt 0.681202 0.157461
vt 0.658666 0.274305
vt 0.840484 0.274305
vt 0.863020 0.157461
vt 0.985060 0.289045
vt 0.476848 0.274305
vt 0.499383 0.157461
vt 0.727272 0.393651
vt 0.932540 0.431766
vt 0.106898 0.289045
vt 0.181818 0.393651
vt 0.351338 0.412450
vt 0.590909 0.393651
vt 0.522419 0.432483
vt 0.863635 0.393651
vt 0.181818 0.236191
vt 0.136065 0.116845
vt 0.000000 0.157461
vt 0.477994 0.040616
vt 0.386671 0.117562
vt 0.067874 0.039899
vt 0.636363 0.078731
vt 0.805883 0.059932
vn 0.0000 -1.0000 0.0000
vn -0.4231 -0.1866 0.8867
vn 0.8174 -0.0696 -0.5718
vn 0.6823 0.0148 0.7309
vn -0.9827 0.0105 -0.1851
vn -0.4219 0.2239 -0.8786
vn 0.3415 0.5176 -0.7845
vn 0.3705 0.9071 0.1996
vn -0.1942 0.5138 0.8357
vn -0.7885 0.5961 -0.1515
vn -0.4282 0.1837 -0.8848
vn -0.5675 0.6040 -0.5595
vn 0.2066 0.9276 -0.3113
vn -0.0728 0.3053 0.9495
vn -0.9892 0.0770 0.1246
vn -0.3707 -0.1538 0.9159
vn 0.9819 -0.0554 0.1811
vn 0.6903 0.0198 0.7233
vn 0.6310 0.0627 -0.7732
vn -0.3603 0.1617 -0.9187
usemtl Material.001
s off
f 7/1/1 10/2/1 1/3/1
f 1/3/2 10/2/2 3/4/2
f 9/5/3 5/6/3 2/7/3
f 8/8/4 2/7/4 12/9/4
f 1/3/5 3/4/5 4/10/5
f 11/11/6 4/10/6 5/6/6
f 2/7/7 5/6/7 14/12/7
f 12/9/8 2/7/8 6/13/8
f 3/4/9 12/14/9 6/15/9
f 4/10/10 3/4/10 6/16/10
f 5/6/11 4/10/11 14/17/11
f 14/17/12 4/10/12 6/18/12
f 6/13/13 2/7/13 14/19/13
f 13/20/14 12/14/14 3/4/14
f 11/11/15 1/3/15 4/10/15
f 3/4/16 10/2/16 13/20/16
f 13/20/17 10/21/17 12/14/17
f 10/21/18 8/22/18 12/14/18
f 8/8/19 9/5/19 2/7/19
f 9/5/20 11/11/20 5/6/20
f 7/23/1 1/24/1 11/11/1
f 7/25/1 8/22/1 10/21/1
f 9/5/1 7/26/1 11/11/1
f 7/27/1 9/5/1 8/8/1
