# Blender v2.80 (sub 75) OBJ File: ''
# www.blender.org
mtllib Rock5.mtl
o Rock5_Icosphere.004
v -1.542004 -0.651936 0.269087
v -1.767930 -0.097388 -0.210798
v -1.559214 -0.119832 0.169204
v -1.701308 -0.056321 0.154689
v -1.917193 -0.152472 -0.090535
v -1.590519 0.300363 0.109356
v -1.687862 -0.651936 -0.032028
v -1.623725 -0.651936 -0.301176
v -1.924017 -0.651936 -0.084857
v -1.325015 -0.651936 0.013642
v -1.811082 -0.651936 0.267584
v -1.487306 -0.208779 -0.126872
v -1.399865 -0.341269 -0.026451
v -1.730484 0.121648 -0.018725
vt 0.272727 0.000000
vt 0.194689 0.137153
vt 0.340601 0.117562
vt 0.318592 0.288606
vt 0.681202 0.157461
vt 0.658666 0.274305
vt 0.840484 0.274305
vt 0.863020 0.157461
vt 0.985060 0.289045
vt 0.476848 0.274305
vt 0.499383 0.157461
vt 0.727272 0.393651
vt 0.932540 0.431766
vt 0.106898 0.289045
vt 0.181818 0.393651
vt 0.351338 0.412450
vt 0.590909 0.393651
vt 0.522419 0.432483
vt 0.863635 0.393651
vt 0.181818 0.236191
vt 0.136065 0.116845
vt 0.000000 0.157461
vt 0.477994 0.040616
vt 0.386671 0.117562
vt 0.067874 0.039899
vt 0.636363 0.078731
vt 0.805883 0.059932
vn 0.0000 -1.0000 0.0000
vn 0.7541 0.1446 0.6406
vn -0.6273 -0.0003 -0.7787
vn 0.3648 0.2414 -0.8993
vn -0.0182 0.1839 0.9828
vn -0.7732 0.2527 0.5816
vn -0.6330 0.5687 -0.5252
vn 0.4153 0.4508 -0.7902
vn 0.9733 0.1018 0.2058
vn -0.0394 0.1380 0.9896
vn -0.7627 0.3829 0.5213
vn -0.8278 0.3160 0.4636
vn -0.1890 0.6655 -0.7221
vn 0.8237 0.5663 0.0299
vn -0.0055 0.1872 0.9823
vn 0.8722 0.2633 0.4123
vn 0.8254 0.1279 -0.5499
vn 0.7246 0.0474 -0.6875
vn -0.5844 -0.0198 -0.8112
vn -0.9522 0.0165 0.3051
usemtl Material.001
s off
f 7/1/1 10/2/1 1/3/1
f 1/3/2 10/2/2 3/4/2
f 9/5/3 5/6/3 2/7/3
f 8/8/4 2/7/4 12/9/4
f 1/3/5 3/4/5 4/10/5
f 11/11/6 4/10/6 5/6/6
f 2/7/7 5/6/7 14/12/7
f 12/9/8 2/7/8 6/13/8
f 3/4/9 12/14/9 6/15/9
f 4/10/10 3/4/10 6/16/10
f 5/6/11 4/10/11 14/17/11
f 14/17/12 4/10/12 6/18/12
f 6/13/13 2/7/13 14/19/13
f 13/20/14 12/14/14 3/4/14
f 11/11/15 1/3/15 4/10/15
f 3/4/16 10/2/16 13/20/16
f 13/20/17 10/21/17 12/14/17
f 10/21/18 8/22/18 12/14/18
f 8/8/19 9/5/19 2/7/19
f 9/5/20 11/11/20 5/6/20
f 7/23/1 1/24/1 11/11/1
f 7/25/1 8/22/1 10/21/1
f 9/5/1 7/26/1 11/11/1
f 7/27/1 9/5/1 8/8/1
